<?xml version="1.0" standalone="no"?>
<!DOCTYPE svg PUBLIC "-//W3C//DTD SVG 20010904//EN"
 "http://www.w3.org/TR/2001/REC-SVG-20010904/DTD/svg10.dtd">
<svg version="1.0" xmlns="http://www.w3.org/2000/svg"
 width="128.000000pt" height="128.000000pt" viewBox="0 0 128.000000 128.000000"
 preserveAspectRatio="xMidYMid meet">
<metadata>
Created by potrace 1.11, written by Peter Selinger 2001-2013
</metadata>
<g transform="translate(0.000000,128.000000) scale(0.100000,-0.100000)"
fill="#000000" stroke="none">
<path d="M18 1273 c7 -3 16 -2 19 1 4 3 -2 6 -13 5 -11 0 -14 -3 -6 -6z"/>
<path d="M88 1273 c6 -2 18 -2 25 0 6 3 1 5 -13 5 -14 0 -19 -2 -12 -5z"/>
<path d="M168 1273 c7 -3 16 -2 19 1 4 3 -2 6 -13 5 -11 0 -14 -3 -6 -6z"/>
<path d="M238 1273 c6 -2 18 -2 25 0 6 3 1 5 -13 5 -14 0 -19 -2 -12 -5z"/>
<path d="M318 1273 c7 -3 16 -2 19 1 4 3 -2 6 -13 5 -11 0 -14 -3 -6 -6z"/>
<path d="M388 1273 c7 -3 16 -2 19 1 4 3 -2 6 -13 5 -11 0 -14 -3 -6 -6z"/>
<path d="M468 1273 c7 -3 16 -2 19 1 4 3 -2 6 -13 5 -11 0 -14 -3 -6 -6z"/>
<path d="M538 1273 c7 -3 16 -2 19 1 4 3 -2 6 -13 5 -11 0 -14 -3 -6 -6z"/>
<path d="M618 1273 c7 -3 16 -2 19 1 4 3 -2 6 -13 5 -11 0 -14 -3 -6 -6z"/>
<path d="M688 1273 c6 -2 18 -2 25 0 6 3 1 5 -13 5 -14 0 -19 -2 -12 -5z"/>
<path d="M768 1273 c7 -3 16 -2 19 1 4 3 -2 6 -13 5 -11 0 -14 -3 -6 -6z"/>
<path d="M838 1273 c7 -3 16 -2 19 1 4 3 -2 6 -13 5 -11 0 -14 -3 -6 -6z"/>
<path d="M918 1273 c7 -3 16 -2 19 1 4 3 -2 6 -13 5 -11 0 -14 -3 -6 -6z"/>
<path d="M988 1273 c7 -3 16 -2 19 1 4 3 -2 6 -13 5 -11 0 -14 -3 -6 -6z"/>
<path d="M1068 1273 c7 -3 16 -2 19 1 4 3 -2 6 -13 5 -11 0 -14 -3 -6 -6z"/>
<path d="M1138 1273 c7 -3 16 -2 19 1 4 3 -2 6 -13 5 -11 0 -14 -3 -6 -6z"/>
<path d="M1208 1273 c7 -3 16 -2 19 1 4 3 -2 6 -13 5 -11 0 -14 -3 -6 -6z"/>
<path d="M539 1227 c-44 -13 -84 -36 -142 -84 -36 -29 -45 -29 -57 0 -8 19 -9
17 -9 -15 -1 -20 -7 -39 -13 -41 -8 -3 -6 -6 5 -6 9 -1 17 6 17 15 0 8 4 13 9
10 5 -3 42 8 83 24 40 16 75 30 77 30 2 0 1 9 -2 20 -13 50 222 67 284 21 18
-13 29 -19 25 -12 -10 16 -1 14 42 -8 47 -24 77 -56 97 -103 17 -43 21 -148 4
-148 -6 0 -8 17 -5 48 l6 47 -13 -45 c-10 -34 -21 -49 -47 -64 -19 -11 -42
-28 -51 -38 -19 -21 -39 -24 -40 -5 0 6 -5 0 -11 -15 -5 -16 -16 -28 -24 -28
-10 0 -11 -6 -4 -26 7 -18 7 -23 -1 -18 -7 4 -10 -1 -7 -12 6 -31 24 -22 63
29 34 44 55 59 55 37 0 -5 -6 -13 -14 -17 -14 -9 -46 -65 -46 -83 0 -6 4 -8
10 -5 6 3 10 2 10 -2 0 -5 9 -9 20 -10 15 -1 20 4 20 23 0 13 5 24 10 24 6 0
10 7 10 16 0 12 7 15 30 12 26 -4 29 -2 24 18 -3 12 -1 25 5 28 13 9 14 -27 3
-69 -5 -17 -6 -55 -3 -86 4 -31 3 -70 -1 -86 -9 -33 -92 -133 -111 -133 -7 0
-23 -12 -36 -25 -23 -25 -61 -34 -61 -15 0 6 -6 10 -14 10 -8 0 -17 7 -20 16
-4 9 -9 14 -12 11 -3 -3 -1 -15 6 -26 9 -17 8 -21 -6 -21 -10 0 -14 -3 -11 -7
4 -3 1 -13 -6 -21 -10 -13 -9 -14 1 -8 17 10 27 -21 12 -39 -10 -12 -10 -15 0
-15 6 0 14 9 17 20 6 24 7 24 41 4 l27 -16 -27 22 c-36 28 -35 34 3 37 23 2
47 18 91 60 33 32 67 65 76 73 33 32 53 96 46 153 -4 32 -1 76 6 106 10 43 15
50 26 40 12 -10 13 -8 4 15 -17 46 -12 64 9 31 18 -29 61 -73 61 -63 0 3 -15
28 -33 55 -19 28 -38 75 -46 108 -30 141 -57 180 -166 234 -41 20 -68 25 -150
28 -60 2 -118 -2 -146 -10z m391 -382 c0 -15 -6 -25 -15 -25 -12 0 -13 4 -3
25 6 14 13 25 15 25 1 0 3 -11 3 -25z m-70 -86 c0 -11 -4 -17 -10 -14 -5 3
-10 13 -10 21 0 8 5 14 10 14 6 0 10 -9 10 -21z"/>
<path d="M356 1154 c-4 -9 -4 -19 -1 -22 2 -3 7 3 11 12 4 9 4 19 1 22 -2 3
-7 -3 -11 -12z"/>
<path d="M404 1106 c-41 -18 -57 -42 -23 -33 13 4 34 7 46 7 16 0 21 6 20 20
-2 23 -2 23 -43 6z"/>
<path d="M269 1059 l-24 -20 24 7 c21 5 23 4 16 -12 -47 -116 -46 -202 2 -299
27 -56 33 -105 13 -105 -14 0 -24 24 -12 28 22 7 -5 41 -28 35 -19 -5 -18 -8
12 -47 36 -46 55 -67 45 -50 -4 7 0 15 9 18 13 5 14 9 4 21 -6 8 -9 23 -5 35
5 17 9 19 21 9 12 -10 16 -8 21 10 6 23 6 23 29 -6 l24 -28 -10 28 c-18 51
-10 64 14 24 l23 -37 12 26 c7 16 17 24 26 21 7 -3 15 -1 17 5 6 17 38 18 38
2 0 -9 -4 -12 -10 -9 -5 3 -10 -3 -10 -14 0 -11 4 -23 10 -26 6 -4 7 1 3 12
-6 16 -5 16 10 5 14 -12 17 -10 23 15 l8 28 7 -25 c7 -24 7 -23 8 6 1 27 5 32
27 32 18 0 24 -5 19 -16 -4 -12 -3 -13 9 -3 8 7 20 10 25 6 6 -3 8 0 5 8 -5
15 53 107 69 107 4 0 6 4 3 8 -3 5 6 21 20 38 l24 29 -4 -40 c-5 -36 -4 -35 8
10 7 28 16 70 19 95 l7 45 -21 -40 c-35 -66 -90 -146 -105 -152 -8 -3 -36 6
-63 21 -72 37 -96 39 -129 11 l-27 -24 30 8 c35 9 105 -13 105 -33 0 -10 -34
-46 -44 -46 -2 0 -2 11 -1 25 2 14 1 25 -2 25 -3 0 -23 -20 -45 -45 -22 -25
-44 -45 -49 -45 -6 0 -15 14 -21 30 -8 25 -13 28 -24 19 -8 -7 -16 -10 -17 -8
-2 2 -12 18 -22 34 -19 30 -19 30 -24 7 -4 -13 -9 -23 -13 -23 -5 1 -15 1 -23
1 -8 0 -15 4 -15 10 0 5 -8 19 -17 30 -13 15 -19 16 -26 7 -6 -9 -4 69 3 111
0 1 5 1 10 0 6 -2 21 22 33 53 l23 56 -24 -5 c-17 -3 -23 -1 -18 7 11 17 1 13
-25 -10z m401 -249 c12 -7 11 -10 -5 -16 -11 -5 -20 -3 -23 4 -2 7 -8 10 -13
6 -5 -3 -9 0 -9 5 0 13 30 14 50 1z m-116 -15 c-4 -8 -11 -15 -16 -15 -6 0 -5
6 2 15 7 8 14 15 16 15 2 0 1 -7 -2 -15z"/>
<path d="M347 1053 c-10 -10 -8 -63 4 -106 15 -56 19 -41 9 33 -5 35 -7 66 -5
68 2 3 16 -3 29 -12 35 -22 46 -20 16 4 -26 21 -42 24 -53 13z"/>
<path d="M80 753 c-60 -69 -73 -96 -58 -127 6 -14 22 -33 35 -41 19 -13 21
-19 13 -35 -14 -26 -13 -30 10 -30 11 0 20 7 20 15 0 8 7 15 16 15 12 0 14 -7
9 -30 -5 -23 -3 -30 9 -30 9 0 16 7 16 16 0 26 25 9 28 -19 3 -25 32 -40 32
-17 0 26 41 4 95 -51 44 -45 56 -63 45 -67 -22 -8 -70 -59 -70 -74 1 -7 8 -1
16 14 8 16 32 37 54 48 22 11 40 23 40 26 0 3 -4 3 -8 0 -5 -3 -37 24 -72 59
-36 36 -72 65 -81 65 -9 0 -28 9 -42 20 -14 11 -30 20 -35 20 -5 0 -12 7 -16
15 -3 8 -15 15 -26 15 -11 0 -23 7 -26 15 -3 8 -14 17 -23 20 -26 8 -44 52
-31 76 6 11 16 16 22 13 7 -5 9 -2 5 8 -4 11 9 30 35 56 40 40 41 40 73 25 18
-8 40 -29 50 -45 15 -27 19 -28 32 -15 12 12 13 19 3 37 -8 15 -15 19 -22 12
-6 -6 -24 -2 -51 14 -23 13 -45 24 -49 24 -3 0 -25 -21 -48 -47z m170 -23 c0
-5 -4 -10 -10 -10 -5 0 -10 5 -10 10 0 6 5 10 10 10 6 0 10 -4 10 -10z m-160
-185 c0 -8 -4 -15 -10 -15 -5 0 -7 7 -4 15 4 8 8 15 10 15 2 0 4 -7 4 -15z"/>
<path d="M578 643 c6 -2 18 -2 25 0 6 3 1 5 -13 5 -14 0 -19 -2 -12 -5z"/>
<path d="M378 600 c18 -11 35 -27 38 -35 4 -8 12 -15 19 -15 16 0 85 -60 85
-74 0 -5 -12 -22 -26 -37 l-26 -27 -70 72 -70 71 66 -75 c65 -73 79 -97 53
-87 -8 3 -20 1 -28 -4 -11 -7 -9 -9 9 -9 22 0 93 62 105 92 4 11 -5 24 -29 40
-18 12 -34 29 -34 36 0 6 -7 12 -16 12 -9 0 -32 14 -51 30 -18 17 -39 30 -46
30 -7 0 3 -9 21 -20z"/>
<path d="M315 570 c-3 -5 -1 -10 4 -10 6 0 11 5 11 10 0 6 -2 10 -4 10 -3 0
-8 -4 -11 -10z"/>
<path d="M1061 492 c-14 -9 -36 -35 -50 -58 -47 -73 -109 -138 -123 -127 -7 6
-24 13 -38 15 -14 3 -34 9 -45 12 -16 6 -17 6 -4 -3 8 -5 38 -18 64 -27 40
-13 50 -14 54 -3 2 7 21 29 43 48 21 19 38 40 38 48 0 21 80 103 102 103 34 0
33 -29 -2 -66 -19 -18 -32 -36 -29 -38 2 -3 19 13 37 35 53 63 19 107 -47 61z"/>
<path d="M578 453 c7 -3 16 -2 19 1 4 3 -2 6 -13 5 -11 0 -14 -3 -6 -6z"/>
<path d="M1053 368 c-15 -20 -25 -38 -20 -38 3 0 12 11 21 25 17 26 16 35 -1
13z"/>
<path d="M1021 313 c-1 -15 32 -73 42 -73 5 0 0 12 -11 28 -10 15 -22 34 -25
42 -3 8 -6 10 -6 3z"/>
<path d="M1178 292 c-14 -9 -36 -30 -48 -45 -19 -23 -24 -26 -38 -15 -13 12
-14 11 -2 -8 13 -20 14 -20 61 29 39 40 53 49 73 45 14 -3 26 -1 26 3 0 15
-44 10 -72 -9z"/>
<path d="M1210 233 l-45 -47 45 39 c41 35 58 55 48 55 -2 0 -24 -21 -48 -47z"/>
<path d="M801 194 c0 -11 3 -14 6 -6 3 7 2 16 -1 19 -3 4 -6 -2 -5 -13z"/>
<path d="M1148 158 c-8 -13 -18 -32 -24 -43 -5 -11 -40 -40 -77 -65 -36 -24
-65 -46 -63 -48 3 -2 35 17 72 42 51 34 73 56 89 91 23 47 25 61 3 23z"/>
<path d="M211 69 c-6 -18 -11 -41 -10 -53 0 -12 6 2 14 29 15 57 13 72 -4 24z"/>
</g>
</svg>
